<?xml version="1.0" encoding="utf-8"?>
<!-- Generator: Adobe Illustrator 19.0.0, SVG Export Plug-In . SVG Version: 6.00 Build 0)  -->
<svg version="1.1" id="Layer_1" xmlns="http://www.w3.org/2000/svg" xmlns:xlink="http://www.w3.org/1999/xlink" x="0px" y="0px"
	 viewBox="0 0 164 129.5" style="enable-background:new 0 0 164 129.5;" xml:space="preserve">
<style type="text/css">
	.st0{display:none;fill:#020202;}
	.st1{fill:#FFFFFF;}
	.st2{display:none;}
	.st3{display:inline;fill:#FFFFFF;}
</style>
<rect y="-12.4" class="st0" width="164" height="141.9"/>
<g id="order">
	<ellipse class="st1" cx="82.2" cy="8.7" rx="8.6" ry="8.7"/>
	<path class="st1" d="M153.1,86.3c-1.8-30.2-31.7-65.4-70.9-65.4c-36.7,0-69.5,33.6-70.9,65.4H0V98h164V86.3H153.1z M135.5,86.3
		c-9.2-48-47.2-50.1-47.9-50.2c-0.7,0-2.2,0.1-2.3,0.8s1.1,0.9,3,1.6s9.5,2,22.7,16.2c11.4,12.3,14.5,27.7,15.1,31.7H21.5
		c1.2-27,29.2-55.4,60.5-55.4c33.4,0,58.9,29.8,60.5,55.4H135.5z"/>
</g>
<g id="waiting" class="st2">
	<circle class="st3" cx="87" cy="6.4" r="18.3"/>
	<circle class="st3" cx="45" cy="6.4" r="18.3"/>
	<circle class="st3" cx="128.6" cy="6.4" r="18.3"/>
	<path class="st3" d="M54,29.6H36.3c-1.7,0-3,1.4-3,3v51.9c0,1.7,1.3,3,3,3h1.5v31.7h-7.6c-2.8,0-5,2.3-5,5v0.3c0,2.8,2.3,5,5,5h7.6
		h3.6h11.5v-42H54c1.7,0,3-1.3,3-3V32.6C57,30.9,55.7,29.6,54,29.6z"/>
	<path class="st3" d="M96,29.6H78.3c-1.7,0-3,1.4-3,3v51.9c0,1.7,1.3,3,3,3h1.1v31.7h-7.3c-2.8,0-5,2.3-5,5v0.3c0,2.8,2.3,5,5,5h7.3
		h4h11.1v-42H96c1.7,0,3-1.3,3-3V32.6C99,30.9,97.7,29.6,96,29.6z"/>
	<path class="st3" d="M137.8,29.6H120c-1.7,0-3,1.4-3,3v51.9c0,1.7,1.3,3,3,3h1.3v31.7h-7.3c-2.8,0-5,2.3-5,5v0.3c0,2.8,2.3,5,5,5
		h7.3h4h11.1v-42h1.3c1.6,0,3-1.3,3-3V32.6C140.8,30.9,139.4,29.6,137.8,29.6z"/>
</g>
</svg>
