<?xml version="1.0" encoding="utf-8"?>
<!-- Generator: Adobe Illustrator 19.0.0, SVG Export Plug-In . SVG Version: 6.00 Build 0)  -->
<svg version="1.1" id="Layer_1" xmlns="http://www.w3.org/2000/svg" xmlns:xlink="http://www.w3.org/1999/xlink" x="0px" y="0px"
	 viewBox="0 0 283.8 283.9" style="enable-background:new 0 0 283.8 283.9;" xml:space="preserve">
<style type="text/css">
	.st0{fill:#C2C1C1;}
</style>
<g id="XMLID_3_">
	<path id="XMLID_2_" class="st0" d="M255.9,141.9c0,63-51,114-114,114s-114-51-114-114s51-114,114-114S255.9,78.9,255.9,141.9z
		 M283.8,141.9c0,78.4-63.5,141.9-141.9,141.9S0,220.3,0,141.9S63.5,0,141.9,0S283.8,63.5,283.8,141.9z M268.7,141.9
		c0-70-56.8-126.7-126.8-126.7S15.1,71.9,15.1,141.9s56.8,126.7,126.8,126.7S268.7,211.9,268.7,141.9z M232.6,173.3H51.3v2.7h22.2
		l4.8,8.6h127.3l5.7-8.6h21.3V173.3z M145.9,86.2c0.5-0.7,0.8-1.6,0.8-2.5c0-2.5-2-4.5-4.5-4.5s-4.5,2-4.5,4.5
		c0,0.9,0.3,1.8,0.8,2.5c-42.3,1.9-76,36.7-76,79.3h159.5C221.9,122.9,188.2,88.1,145.9,86.2z M166.8,138.4h20.3
		c0.3-0.8,0.6-1.7,0.7-2.6h-21v-2.6h21c-0.1-0.9-0.4-1.8-0.7-2.7h-20.3v-2.8h18.7c-3.2-4.2-9.4-7.1-16.5-7.1
		c-10.4,0-18.9,6.2-18.9,13.8c0,7.6,8.4,13.8,18.9,13.8c7.2,0,13.5-2.9,16.6-7.3h-18.8V138.4z M151.2,131.1H89v6.7h62.2V131.1z"/>
</g>
</svg>
