<?xml version="1.0" encoding="utf-8"?>
<!-- Generator: Adobe Illustrator 19.0.0, SVG Export Plug-In . SVG Version: 6.00 Build 0)  -->
<svg version="1.1" id="Layer_1" xmlns="http://www.w3.org/2000/svg" xmlns:xlink="http://www.w3.org/1999/xlink" x="0px" y="0px"
	 viewBox="0 0 121.8 141.9" style="enable-background:new 0 0 121.8 141.9;" xml:space="preserve">
<style type="text/css">
	.st0{display:none;fill:#020202;}
	.st1{display:none;}
	.st2{display:inline;fill:#FFFFFF;}
	.st3{fill:#FFFFFF;}
</style>
<rect class="st0" width="121.8" height="141.9"/>
<g id="order" class="st1">
	<ellipse class="st2" cx="221.1" cy="24.6" rx="8.6" ry="8.7"/>
	<path class="st2" d="M292,102.2c-1.8-30.2-31.7-65.4-70.9-65.4c-36.7,0-69.5,33.6-70.9,65.4h-11.3v11.7h164v-11.7H292z
		 M274.4,102.2c-9.2-48-47.2-50.1-47.9-50.2c-0.7,0-2.2,0.1-2.3,0.8s1.1,0.9,3,1.6s9.5,2,22.7,16.2c11.4,12.3,14.5,27.7,15.1,31.7
		H160.4c1.2-27,29.2-55.4,60.5-55.4c33.4,0,58.9,29.8,60.5,55.4H274.4z"/>
</g>
<g id="waiting">
	<circle class="st3" cx="61.9" cy="18.8" r="18.3"/>
	<circle class="st3" cx="19.9" cy="18.8" r="18.3"/>
	<circle class="st3" cx="103.5" cy="18.8" r="18.3"/>
	<path class="st3" d="M28.9,42H11.2c-1.7,0-3,1.4-3,3v51.9c0,1.7,1.3,3,3,3h1.5v31.7H5c-2.8,0-5,2.3-5,5v0.3c0,2.8,2.3,5,5,5h7.6
		h3.6h11.5v-42h1.1c1.7,0,3-1.3,3-3V45C31.9,43.3,30.6,42,28.9,42z"/>
	<path class="st3" d="M70.9,42H53.2c-1.7,0-3,1.4-3,3v51.9c0,1.7,1.3,3,3,3h1.1v31.7H47c-2.8,0-5,2.3-5,5v0.3c0,2.8,2.3,5,5,5h7.3h4
		h11.1v-42h1.5c1.7,0,3-1.3,3-3V45C73.9,43.3,72.6,42,70.9,42z"/>
	<path class="st3" d="M112.7,42H95c-1.7,0-3,1.4-3,3v51.9c0,1.7,1.3,3,3,3h1.3v31.7H89c-2.8,0-5,2.3-5,5v0.3c0,2.8,2.3,5,5,5h7.3h4
		h11.1v-42h1.3c1.6,0,3-1.3,3-3V45C115.7,43.3,114.4,42,112.7,42z"/>
</g>
</svg>
