<?xml version="1.0" encoding="utf-8"?>
<!-- Generator: Adobe Illustrator 19.0.0, SVG Export Plug-In . SVG Version: 6.00 Build 0)  -->
<svg version="1.1" id="Layer_1" xmlns="http://www.w3.org/2000/svg" xmlns:xlink="http://www.w3.org/1999/xlink" x="0px" y="0px"
	 viewBox="0 0 295.7 295.6" style="enable-background:new 0 0 295.7 295.6;" xml:space="preserve">
<style type="text/css">
	.st0{fill:#FFFFFF;}
	.st1{display:none;}
	.st2{fill:#1BAB76;}
	.st3{display:inline;fill:#C2C1C1;}
	.st4{fill:#C2C1C1;}
</style>
<path id="XMLID_106_" class="st0" d="M169.8,133.2l1.1,1.3l3-2.9c0,0,5.3-11,16.2-16.6c0,0,28.3-28.3,29.2-29.2c0,0,3.4-3,0.7-6.8
	c-2.3-3.3-6.4-2.6-8.4-0.4c-1.9,2.2-29,29.1-29,29.1s-9.2,13.6-17.1,16l-2.6,2.7l1.4,1.3c0,0-2.2,2.4-6.9,5.1s-20.5,10.4-22.6,11.4
	s-19.4,9.6-23.2,14.1c-3.8,4.5-5.8,9-5.8,10.3H73.1c0,40.6,33.1,73.6,73.9,73.6s73.9-33,73.9-73.6h-69.5c1.7-3.6,6.8-14.5,7.4-15.7
	C159.3,151.3,166.5,137.3,169.8,133.2z M217.6,80.8c3.5,3.6-6.1,7.9-7.1,6.7C209.6,86.5,213.4,76.6,217.6,80.8z M108.1,168.5
	c0.4-1.4,2-6.4,5.4-9.1c4-3.1,10.6-7.2,15.8-9.9s17.4-8.6,17.4-8.6s-22.6,14.6-24.8,16.2c-2.2,1.5-9.4,4.8-11.1,11.5H108.1z
	 M116.1,168.5h-2.7c0.6-1.4,2.2-4.6,4.2-5.9c2.6-1.7,23-15.1,23-15.1s-19.2,15.1-20,15.7C120,163.7,117.1,165.7,116.1,168.5z
	 M118.6,168.5c0.4-0.7,1.3-1.7,2.8-3c2.5-2,26.5-20.7,26.5-20.7s-19.7,17.9-24.7,23.7H118.6z M126.3,168.5
	c3-2.9,16.9-16.3,21.6-20.6c5.2-4.8,17.7-16.7,19.2-17.2c0,0-2.7,3.4-5.1,6.2c-2.5,2.8-26.8,28.9-29.6,31.7H126.3z M135.5,168.5
	c0,0,16.8-17.7,18-19.2l-14.9,19.2H135.5z M141.4,168.5l9.5-12.4l-7.9,12.4H141.4z M148.5,168.5h-2.6l11.9-18.7L148.5,168.5z"/>
<g id="XMLID_6_" class="st1">
	<path id="XMLID_3_" class="st2" d="M147.9,29C82.3,29,29.1,82.2,29.1,147.8s53.2,118.8,118.7,118.8c65.6,0,118.7-53.2,118.7-118.8
		S213.4,29,147.9,29z"/>
	<path id="XMLID_82_" class="st0" d="M158.7,152.8c0.7-1.5,7.8-15.5,11.1-19.6l1.1,1.3l3-2.9c0,0,5.3-11,16.2-16.6
		c0,0,28.3-28.3,29.2-29.2c0,0,3.4-3,0.7-6.8c-2.3-3.3-6.4-2.6-8.4-0.4c-1.9,2.2-29,29.1-29,29.1s-9.2,13.6-17.1,16l-2.6,2.7
		l1.4,1.3c0,0-2.2,2.4-6.9,5.1s-20.5,10.4-22.6,11.4s-19.4,9.6-23.2,14.1c-3.8,4.5-5.8,9-5.8,10.3H73.1c0,40.6,33.1,73.6,73.9,73.6
		s73.9-33,73.9-73.6h-69.5C153,164.9,158.1,154,158.7,152.8z M217.6,80.8c3.5,3.6-6.1,7.9-7.1,6.7C209.6,86.5,213.4,76.6,217.6,80.8
		z M113.6,159.4c4-3.1,10.6-7.2,15.8-9.9s17.4-8.6,17.4-8.6s-22.6,14.6-24.8,16.2c-2.2,1.5-9.4,4.8-11.1,11.5h-2.7
		C108.5,167.1,110.1,162.1,113.6,159.4z M116.1,168.5h-2.7c0.6-1.4,2.2-4.6,4.2-5.9c2.6-1.7,23-15.1,23-15.1s-19.2,15.1-20,15.7
		C120,163.7,117.1,165.7,116.1,168.5z M118.6,168.5c0.4-0.7,1.3-1.7,2.8-3c2.5-2,26.5-20.7,26.5-20.7s-19.7,17.9-24.7,23.7H118.6z
		 M126.3,168.5c3-2.9,16.9-16.3,21.6-20.6c5.2-4.8,17.7-16.7,19.2-17.2c0,0-2.7,3.4-5.1,6.2c-2.5,2.8-26.8,28.9-29.6,31.7H126.3z
		 M153.5,149.3l-14.9,19.2h-3.2C135.5,168.5,152.3,150.9,153.5,149.3z M151,156.1l-7.9,12.4h-1.7L151,156.1z M145.9,168.5l11.9-18.7
		l-9.3,18.7H145.9z"/>
</g>
<g id="XMLID_4_" class="st1">
	<path id="XMLID_10_" class="st3" d="M147.9,0C66.2,0,0,66.2,0,147.8s66.2,147.8,147.9,147.8s147.9-66.2,147.9-147.8
		S229.5,0,147.9,0z M147.9,279.8c-73,0-132.1-59.1-132.1-132s59.1-132,132.1-132S280,74.9,280,147.8S220.8,279.8,147.9,279.8z"/>
	<path id="XMLID_117_" class="st3" d="M147.8,29.1c-65.6,0-118.7,53.2-118.7,118.7s53.2,118.7,118.7,118.7s118.7-53.2,118.7-118.7
		S213.4,29.1,147.8,29.1z M135.4,191.9L78,148.2l5.7-7.5l51,39l76-76l7,7L135.4,191.9z"/>
</g>
<g id="XMLID_9_">
	<path id="XMLID_101_" class="st4" d="M147.9,0C66.2,0,0,66.2,0,147.9s66.2,147.9,147.9,147.9s147.9-66.2,147.9-147.9
		S229.5,0,147.9,0z M147.9,279.8c-73,0-132.1-59.1-132.1-132s59.1-132,132.1-132S280,74.9,280,147.8S220.8,279.8,147.9,279.8z"/>
	<path id="XMLID_114_" class="st4" d="M147.9,29C82.3,29,29.1,82.2,29.1,147.8s53.2,118.8,118.7,118.8
		c65.6,0,118.7-53.2,118.7-118.8S213.4,29,147.9,29z M220.8,168.5c0,40.6-33.1,73.6-73.9,73.6s-73.9-33-73.9-73.6h32.6
		c0-1.3,2-5.8,5.8-10.3c3.8-4.5,21.1-13,23.2-14.1s17.8-8.7,22.6-11.4s6.9-5.1,6.9-5.1l-1.4-1.3l2.6-2.7c7.9-2.5,17.1-16,17.1-16
		s27.1-26.9,29-29.1c1.9-2.2,6-2.8,8.4,0.4c2.7,3.8-0.7,6.8-0.7,6.8c-1,0.8-29.2,29.2-29.2,29.2c-10.9,5.6-16.2,16.6-16.2,16.6
		l-3,2.9l-1.1-1.3c-3.3,4.1-10.4,18.1-11.1,19.6c-0.6,1.2-5.7,12.1-7.4,15.7H220.8z"/>
	<path id="XMLID_118_" class="st4" d="M147.9,144.8c0,0-23.9,18.7-26.5,20.7c-1.5,1.2-2.4,2.3-2.8,3h4.6
		C128.2,162.7,147.9,144.8,147.9,144.8z"/>
	<path id="XMLID_119_" class="st4" d="M217.6,80.8c-4.2-4.3-8,5.7-7.1,6.7C211.4,88.7,221.1,84.4,217.6,80.8z"/>
	<path id="XMLID_120_" class="st4" d="M167,130.7c-1.4,0.5-13.9,12.4-19.2,17.2c-4.7,4.3-18.6,17.8-21.6,20.6h6
		c2.8-2.8,27.1-28.9,29.6-31.7C164.3,134.1,167,130.7,167,130.7z"/>
	<path id="XMLID_121_" class="st4" d="M122,157.1c2.2-1.6,24.8-16.2,24.8-16.2s-12.2,5.9-17.4,8.6s-11.8,6.8-15.8,9.9
		c-3.4,2.7-5,7.7-5.4,9.1h2.7C112.6,161.8,119.8,158.6,122,157.1z"/>
	<path id="XMLID_122_" class="st4" d="M140.6,147.4c0,0-20.4,13.4-23,15.1c-2,1.3-3.6,4.6-4.2,5.9h2.7c1-2.8,3.9-4.8,4.5-5.3
		C121.4,162.6,140.6,147.4,140.6,147.4z"/>
	<path id="XMLID_123_" class="st4" d="M135.5,168.5h3.2l14.9-19.2C152.3,150.9,135.5,168.5,135.5,168.5z"/>
	<polygon id="XMLID_124_" class="st4" points="148.5,168.5 157.8,149.9 145.9,168.5 	"/>
	<polygon id="XMLID_125_" class="st4" points="141.4,168.5 143.1,168.5 151,156.1 	"/>
</g>
</svg>
