<?xml version="1.0" encoding="utf-8"?>
<!-- Generator: Adobe Illustrator 19.0.0, SVG Export Plug-In . SVG Version: 6.00 Build 0)  -->
<svg version="1.1" id="Layer_1" xmlns="http://www.w3.org/2000/svg" xmlns:xlink="http://www.w3.org/1999/xlink" x="0px" y="0px"
	 viewBox="0 0 295.7 295.6" style="enable-background:new 0 0 295.7 295.6;" xml:space="preserve">
<style type="text/css">
	.st0{display:none;}
	.st1{display:inline;fill:#C2C1C1;}
	.st2{display:inline;fill:#C2C1C1;stroke:#FFFFFF;stroke-width:3;stroke-miterlimit:10;}
	.st3{display:inline;fill:#C2C1C1;stroke:#FFFFFF;stroke-width:4;stroke-miterlimit:10;}
	.st4{display:inline;fill:#FFFFFF;}
	.st5{fill:#C2C1C1;}
</style>
<g id="XMLID_4_" class="st0">
	<path id="XMLID_10_" class="st1" d="M147.9,0C66.2,0,0,66.2,0,147.8s66.2,147.8,147.9,147.8s147.9-66.2,147.9-147.8
		S229.5,0,147.9,0z M147.9,279.8c-73,0-132.1-59.1-132.1-132s59.1-132,132.1-132S280,74.9,280,147.8S220.8,279.8,147.9,279.8z"/>
	<path id="XMLID_117_" class="st1" d="M147.8,29.1c-65.6,0-118.7,53.2-118.7,118.7s53.2,118.7,118.7,118.7s118.7-53.2,118.7-118.7
		S213.4,29.1,147.8,29.1z M135.4,191.9L78,148.2l5.7-7.5l51,39l76-76l7,7L135.4,191.9z"/>
</g>
<g id="XMLID_9_" class="st0">
	<path id="XMLID_101_" class="st1" d="M147.9,0C66.2,0,0,66.2,0,147.9s66.2,147.9,147.9,147.9s147.9-66.2,147.9-147.9
		S229.5,0,147.9,0z M147.9,279.8c-73,0-132.1-59.1-132.1-132s59.1-132,132.1-132S280,74.9,280,147.8S220.8,279.8,147.9,279.8z"/>
	<path id="XMLID_114_" class="st1" d="M147.9,29C82.3,29,29.1,82.2,29.1,147.8s53.2,118.8,118.7,118.8
		c65.6,0,118.7-53.2,118.7-118.8S213.4,29,147.9,29z M220.8,168.5c0,40.6-33.1,73.6-73.9,73.6s-73.9-33-73.9-73.6h32.6
		c0-1.3,2-5.8,5.8-10.3c3.8-4.5,21.1-13,23.2-14.1s17.8-8.7,22.6-11.4s6.9-5.1,6.9-5.1l-1.4-1.3l2.6-2.7c7.9-2.5,17.1-16,17.1-16
		s27.1-26.9,29-29.1c1.9-2.2,6-2.8,8.4,0.4c2.7,3.8-0.7,6.8-0.7,6.8c-1,0.8-29.2,29.2-29.2,29.2c-10.9,5.6-16.2,16.6-16.2,16.6
		l-3,2.9l-1.1-1.3c-3.3,4.1-10.4,18.1-11.1,19.6c-0.6,1.2-5.7,12.1-7.4,15.7H220.8z"/>
	<path id="XMLID_118_" class="st1" d="M147.9,144.8c0,0-23.9,18.7-26.5,20.7c-1.5,1.2-2.4,2.3-2.8,3h4.6
		C128.2,162.7,147.9,144.8,147.9,144.8z"/>
	<path id="XMLID_119_" class="st1" d="M217.6,80.8c-4.2-4.3-8,5.7-7.1,6.7C211.4,88.7,221.1,84.4,217.6,80.8z"/>
	<path id="XMLID_120_" class="st1" d="M167,130.7c-1.4,0.5-13.9,12.4-19.2,17.2c-4.7,4.3-18.6,17.8-21.6,20.6h6
		c2.8-2.8,27.1-28.9,29.6-31.7C164.3,134.1,167,130.7,167,130.7z"/>
	<path id="XMLID_121_" class="st1" d="M122,157.1c2.2-1.6,24.8-16.2,24.8-16.2s-12.2,5.9-17.4,8.6s-11.8,6.8-15.8,9.9
		c-3.4,2.7-5,7.7-5.4,9.1h2.7C112.6,161.8,119.8,158.6,122,157.1z"/>
	<path id="XMLID_122_" class="st1" d="M140.6,147.4c0,0-20.4,13.4-23,15.1c-2,1.3-3.6,4.6-4.2,5.9h2.7c1-2.8,3.9-4.8,4.5-5.3
		C121.4,162.6,140.6,147.4,140.6,147.4z"/>
	<path id="XMLID_123_" class="st1" d="M135.5,168.5h3.2l14.9-19.2C152.3,150.9,135.5,168.5,135.5,168.5z"/>
	<polygon id="XMLID_124_" class="st1" points="148.5,168.5 157.8,149.9 145.9,168.5 	"/>
	<polygon id="XMLID_125_" class="st1" points="141.4,168.5 143.1,168.5 151,156.1 	"/>
</g>
<g id="XMLID_19_" class="st0">
	<polygon id="XMLID_23_" class="st2" points="216.8,187.2 182.6,187.4 172.2,149.2 227,149.2 	"/>
	<path id="XMLID_22_" class="st3" d="M222.9,129.3c-0.1,0-0.2,0-0.3,0c-0.7-11.5-10.7-20.7-23-20.7c-12.3,0-22.4,9.2-23,20.7
		c-0.2,0-0.4,0-0.6,0c-7.4,0-13.4,6-13.4,13.4c0,7.4,6,13.4,13.4,13.4c4.4,0,8.3-2.1,10.7-5.4c3.7,2.9,8.1,4.8,12.9,4.8
		c4.5,0,8.8-1.6,12.3-4.3c2.6,3,6.5,4.9,10.9,4.9c7.8,0,14.1-6,14.1-13.4C237,135.3,230.7,129.3,222.9,129.3z"/>
	<path id="XMLID_21_" class="st4" d="M194.8,181.2l-0.1,0c-0.5,0.1-1-0.2-1-0.7l-3.3-18.5c-0.1-0.5,0.2-1,0.7-1l0.1,0
		c0.5-0.1,1,0.2,1,0.7l3.3,18.5C195.6,180.6,195.3,181.1,194.8,181.2z"/>
	<path id="XMLID_20_" class="st4" d="M207.9,180.9l-0.1,0c-0.5-0.1-0.8-0.5-0.7-1l3-18c0.1-0.5,0.5-0.8,1-0.7l0.1,0
		c0.5,0.1,0.8,0.5,0.7,1l-3,18C208.8,180.7,208.4,181,207.9,180.9z"/>
</g>
<g id="XMLID_14_" class="st0">
	<polygon id="XMLID_18_" class="st2" points="112.9,187.2 78.7,187.4 68.3,149.2 123.1,149.2 	"/>
	<path id="XMLID_17_" class="st3" d="M119,129.3c-0.1,0-0.2,0-0.3,0c-0.7-11.5-10.7-20.7-23-20.7c-12.3,0-22.4,9.2-23,20.7
		c-0.2,0-0.4,0-0.6,0c-7.4,0-13.4,6-13.4,13.4c0,7.4,6,13.4,13.4,13.4c4.4,0,8.3-2.1,10.7-5.4c3.7,2.9,8.1,4.8,12.9,4.8
		c4.5,0,8.8-1.6,12.3-4.3c2.6,3,6.5,4.9,10.9,4.9c7.8,0,14.1-6,14.1-13.4C133.1,135.3,126.8,129.3,119,129.3z"/>
	<path id="XMLID_16_" class="st4" d="M91.4,184l-0.2,0c-0.6,0.1-1.2-0.3-1.3-0.9l-4.2-23.6c-0.1-0.6,0.3-1.2,0.9-1.3l0.2,0
		c0.6-0.1,1.2,0.3,1.3,0.9l4.2,23.6C92.5,183.3,92,183.9,91.4,184z"/>
	<path id="XMLID_15_" class="st4" d="M103.5,184l-0.2,0c-0.6-0.1-1.1-0.7-0.9-1.3l3.9-23.7c0.1-0.6,0.7-1.1,1.3-0.9l0.2,0
		c0.6,0.1,1.1,0.7,0.9,1.3l-3.9,23.7C104.7,183.7,104.1,184.1,103.5,184z"/>
</g>
<g id="XMLID_2_">
	<path id="XMLID_31_" class="st5" d="M147.9,0C66.2,0,0,66.2,0,147.8s66.2,147.8,147.9,147.8s147.9-66.2,147.9-147.8
		S229.5,0,147.9,0z M147.9,279.7c-73,0-132.1-59.1-132.1-132s59.1-132,132.1-132S280,74.9,280,147.8S220.8,279.7,147.9,279.7z"/>
	<path id="XMLID_28_" class="st5" d="M213.3,132.3c-0.1,0-0.2,0-0.2,0c-0.6-9.9-9.2-18.5-19.8-18.5c-8.8,0-16.3,6-18.8,13.7
		c8.1,0.4,14.5,6.8,14.5,14.5c0,7.2-5.6,13.2-12.9,14.4l-2.3,8.6l4.9,17.2L208,182l7.6-28c5.8-0.9,10.1-5.5,10.1-11.2
		C225.7,136.5,220,132.3,213.3,132.3z M188.5,179.9l-0.1,0c-0.6,0.1-1.1-0.3-1.2-0.8l-3.8-21.6c-0.1-0.6,0.3-1.1,0.9-1.2l0.1,0
		c0.6-0.1,1.1,0.3,1.2,0.8l3.8,21.6C189.4,179.3,189.1,179.8,188.5,179.9z M200.7,179.1c-0.1,0.6-0.6,1-1.2,0.9l-0.1,0
		c-0.6-0.1-1-0.6-0.9-1.2l3.6-21.6c0.1-0.6,0.6-1,1.2-0.9l0.1,0c0.6,0.1,1,0.6,0.9,1.2L200.7,179.1z"/>
	<path id="XMLID_40_" class="st5" d="M107.9,142.1c0-8,6.5-14.6,14.6-14.6c0.2,0,0.3,0,0.5,0c-2.6-7.7-10-13.7-18.8-13.7
		c-10.6,0-19.2,8.6-19.8,18.5c-0.1,0-0.2,0-0.2,0c-6.7,0-12.4,4.1-12.4,10.5c0,5.7,4.3,10.3,10.1,11.2l7.6,28l29.5,0.2l4.4-15.5
		l-2.8-10.3C113.3,155.4,107.9,149.4,107.9,142.1z M97.9,180l-0.1,0c-0.6,0.1-1.1-0.3-1.2-0.9L93,157.5c-0.1-0.6,0.3-1.1,0.9-1.2
		l0.1,0c0.6-0.1,1.1,0.3,1.2,0.9l3.6,21.6C98.9,179.3,98.5,179.9,97.9,180z M110.2,179.1c-0.1,0.6-0.6,1-1.2,0.8l-0.1,0
		c-0.6-0.1-1-0.6-0.9-1.2l3.8-21.6c0.1-0.6,0.6-1,1.2-0.8l0.1,0c0.6,0.1,1,0.6,0.9,1.2L110.2,179.1z"/>
	<path id="XMLID_44_" class="st5" d="M187,141.8c0-7.6-6.8-12.5-14.8-12.5c-0.1,0-0.2,0-0.3,0c-0.7-11.8-11-22.1-23.6-22.1
		c-12.6,0-23,10.3-23.6,22.1c-0.2,0-0.4,0-0.7,0c-7.6,0-14.6,5.3-14.6,12.9c0,6.9,5.1,11.7,11.7,12.7l9.7,33.9l35.1-0.2l9-33.5
		C181.9,154.1,187,148.7,187,141.8z M142.6,186.1l-0.2,0c-0.7,0.1-1.3-0.3-1.5-1l-4.6-25.7c-0.1-0.7,0.3-1.3,1-1.5l0.2,0
		c0.7-0.1,1.3,0.3,1.5,1l4.6,25.7C143.8,185.4,143.3,186,142.6,186.1z M157.2,185.2c-0.1,0.7-0.8,1.1-1.4,1l-0.2,0
		c-0.7-0.1-1.1-0.8-1-1.4l4.2-25.8c0.1-0.7,0.8-1.1,1.4-1l0.2,0c0.7,0.1,1.1,0.8,1,1.4L157.2,185.2z"/>
	<path id="XMLID_48_" class="st5" d="M147.9,29C82.3,29,29.1,82.2,29.1,147.7s53.2,118.7,118.7,118.7s118.7-53.2,118.7-118.7
		S213.4,29,147.9,29z M216.4,155l-7.6,28.5l-31.2,0.2l-4.5-16.5l-6.2,23.2l-37.2,0.2l-5.9-21.7l-4,14.8l-31.2-0.2L80.9,155
		c-6.1-0.9-10.8-6-10.8-12c0-6.7,5.8-12.2,12.9-12.2c0.1,0,0.2,0,0.3,0c0.6-10.5,9.8-18.9,21-18.9c8.7,0,16.2,5.1,19.4,12.4
		c2.2-11,12.4-19.3,24.6-19.3c12.8,0,23.4,9.2,24.9,21c2.7-8.1,10.6-14.1,20.1-14.1c11.2,0,20.4,8.4,21,18.9c0.1,0,0.2,0,0.3,0
		c7.1,0,12.9,5.5,12.9,12.2C227.3,149.1,222.6,154.1,216.4,155z"/>
</g>
</svg>
